<mxfile host="app.diagrams.net" modified="2023-10-30T16:55:23.669Z" agent="Mozilla/5.0 (Windows NT 10.0; Win64; x64; rv:109.0) Gecko/20100101 Firefox/119.0" etag="HybZx6ueOCBkdAekpNOp" version="22.0.8" type="github">
  <diagram id="C5RBs43oDa-KdzZeNtuy" name="Page-1">
    <mxGraphModel dx="1354" dy="1849" grid="1" gridSize="10" guides="1" tooltips="1" connect="1" arrows="1" fold="1" page="1" pageScale="1" pageWidth="827" pageHeight="1169" math="0" shadow="0">
      <root>
        <mxCell id="WIyWlLk6GJQsqaUBKTNV-0" />
        <mxCell id="WIyWlLk6GJQsqaUBKTNV-1" parent="WIyWlLk6GJQsqaUBKTNV-0" />
        <mxCell id="IRWWiHYYLFmGfbk0s6q4-0" value="Run a basic python program" style="rounded=0;whiteSpace=wrap;html=1;labelBackgroundColor=none;fillColor=#dae8fc;strokeColor=#6c8ebf;" vertex="1" parent="WIyWlLk6GJQsqaUBKTNV-1">
          <mxGeometry x="280" y="20" width="200" height="60" as="geometry" />
        </mxCell>
        <mxCell id="IRWWiHYYLFmGfbk0s6q4-1" value="Download weather data to a database" style="rounded=0;whiteSpace=wrap;html=1;labelBackgroundColor=none;fillColor=#dae8fc;strokeColor=#6c8ebf;" vertex="1" parent="WIyWlLk6GJQsqaUBKTNV-1">
          <mxGeometry x="280" y="100" width="200" height="60" as="geometry" />
        </mxCell>
        <mxCell id="IRWWiHYYLFmGfbk0s6q4-15" value="" style="edgeStyle=orthogonalEdgeStyle;rounded=0;orthogonalLoop=1;jettySize=auto;html=1;" edge="1" parent="WIyWlLk6GJQsqaUBKTNV-1" source="IRWWiHYYLFmGfbk0s6q4-2" target="IRWWiHYYLFmGfbk0s6q4-3">
          <mxGeometry relative="1" as="geometry" />
        </mxCell>
        <mxCell id="IRWWiHYYLFmGfbk0s6q4-2" value="Query the weather data" style="rounded=0;whiteSpace=wrap;html=1;labelBackgroundColor=none;fillColor=#dae8fc;strokeColor=#6c8ebf;" vertex="1" parent="WIyWlLk6GJQsqaUBKTNV-1">
          <mxGeometry x="280" y="180" width="200" height="60" as="geometry" />
        </mxCell>
        <mxCell id="IRWWiHYYLFmGfbk0s6q4-16" value="" style="edgeStyle=orthogonalEdgeStyle;rounded=0;orthogonalLoop=1;jettySize=auto;html=1;" edge="1" parent="WIyWlLk6GJQsqaUBKTNV-1" source="IRWWiHYYLFmGfbk0s6q4-3" target="IRWWiHYYLFmGfbk0s6q4-5">
          <mxGeometry relative="1" as="geometry" />
        </mxCell>
        <mxCell id="IRWWiHYYLFmGfbk0s6q4-3" value="Extract the weather data into a CSV file" style="rounded=0;whiteSpace=wrap;html=1;labelBackgroundColor=none;fillColor=#dae8fc;strokeColor=#6c8ebf;" vertex="1" parent="WIyWlLk6GJQsqaUBKTNV-1">
          <mxGeometry x="280" y="260" width="200" height="60" as="geometry" />
        </mxCell>
        <mxCell id="IRWWiHYYLFmGfbk0s6q4-4" value="Cleanse the weather data" style="rounded=0;whiteSpace=wrap;html=1;labelBackgroundColor=none;fillColor=#dae8fc;strokeColor=#6c8ebf;" vertex="1" parent="WIyWlLk6GJQsqaUBKTNV-1">
          <mxGeometry x="280" y="340" width="200" height="60" as="geometry" />
        </mxCell>
        <mxCell id="IRWWiHYYLFmGfbk0s6q4-17" value="" style="edgeStyle=orthogonalEdgeStyle;rounded=0;orthogonalLoop=1;jettySize=auto;html=1;" edge="1" parent="WIyWlLk6GJQsqaUBKTNV-1" source="IRWWiHYYLFmGfbk0s6q4-5" target="IRWWiHYYLFmGfbk0s6q4-6">
          <mxGeometry relative="1" as="geometry" />
        </mxCell>
        <mxCell id="IRWWiHYYLFmGfbk0s6q4-5" value="&lt;div&gt;Use python analytic modules &lt;br&gt;to develop graphical models&lt;br&gt;&lt;/div&gt;" style="rounded=0;whiteSpace=wrap;html=1;labelBackgroundColor=none;fillColor=#dae8fc;strokeColor=#6c8ebf;" vertex="1" parent="WIyWlLk6GJQsqaUBKTNV-1">
          <mxGeometry x="280" y="420" width="200" height="60" as="geometry" />
        </mxCell>
        <mxCell id="IRWWiHYYLFmGfbk0s6q4-18" value="" style="edgeStyle=orthogonalEdgeStyle;rounded=0;orthogonalLoop=1;jettySize=auto;html=1;" edge="1" parent="WIyWlLk6GJQsqaUBKTNV-1" source="IRWWiHYYLFmGfbk0s6q4-6" target="IRWWiHYYLFmGfbk0s6q4-8">
          <mxGeometry relative="1" as="geometry" />
        </mxCell>
        <mxCell id="IRWWiHYYLFmGfbk0s6q4-6" value="Cleanse the weather data" style="rounded=0;whiteSpace=wrap;html=1;labelBackgroundColor=none;fillColor=#dae8fc;strokeColor=#6c8ebf;" vertex="1" parent="WIyWlLk6GJQsqaUBKTNV-1">
          <mxGeometry x="280" y="500" width="200" height="60" as="geometry" />
        </mxCell>
        <mxCell id="IRWWiHYYLFmGfbk0s6q4-7" value="Start" style="ellipse;whiteSpace=wrap;html=1;fillColor=#dae8fc;strokeColor=#6c8ebf;" vertex="1" parent="WIyWlLk6GJQsqaUBKTNV-1">
          <mxGeometry x="320" y="-80" width="120" height="80" as="geometry" />
        </mxCell>
        <mxCell id="IRWWiHYYLFmGfbk0s6q4-8" value="Stop" style="ellipse;whiteSpace=wrap;html=1;fillColor=#f8cecc;strokeColor=#b85450;" vertex="1" parent="WIyWlLk6GJQsqaUBKTNV-1">
          <mxGeometry x="320" y="580" width="120" height="80" as="geometry" />
        </mxCell>
        <mxCell id="IRWWiHYYLFmGfbk0s6q4-11" value="" style="endArrow=classic;html=1;rounded=0;exitX=0.5;exitY=1;exitDx=0;exitDy=0;entryX=0.5;entryY=0;entryDx=0;entryDy=0;" edge="1" parent="WIyWlLk6GJQsqaUBKTNV-1" source="IRWWiHYYLFmGfbk0s6q4-7" target="IRWWiHYYLFmGfbk0s6q4-0">
          <mxGeometry width="50" height="50" relative="1" as="geometry">
            <mxPoint x="310" y="180" as="sourcePoint" />
            <mxPoint x="360" y="130" as="targetPoint" />
          </mxGeometry>
        </mxCell>
        <mxCell id="IRWWiHYYLFmGfbk0s6q4-12" value="" style="endArrow=classic;html=1;rounded=0;exitX=0.5;exitY=1;exitDx=0;exitDy=0;entryX=0.5;entryY=0;entryDx=0;entryDy=0;" edge="1" parent="WIyWlLk6GJQsqaUBKTNV-1" source="IRWWiHYYLFmGfbk0s6q4-0" target="IRWWiHYYLFmGfbk0s6q4-1">
          <mxGeometry width="50" height="50" relative="1" as="geometry">
            <mxPoint x="310" y="180" as="sourcePoint" />
            <mxPoint x="360" y="130" as="targetPoint" />
          </mxGeometry>
        </mxCell>
        <mxCell id="IRWWiHYYLFmGfbk0s6q4-14" value="" style="endArrow=classic;html=1;rounded=0;exitX=0.5;exitY=1;exitDx=0;exitDy=0;entryX=0.5;entryY=0;entryDx=0;entryDy=0;" edge="1" parent="WIyWlLk6GJQsqaUBKTNV-1" source="IRWWiHYYLFmGfbk0s6q4-1" target="IRWWiHYYLFmGfbk0s6q4-2">
          <mxGeometry width="50" height="50" relative="1" as="geometry">
            <mxPoint x="310" y="180" as="sourcePoint" />
            <mxPoint x="360" y="130" as="targetPoint" />
          </mxGeometry>
        </mxCell>
      </root>
    </mxGraphModel>
  </diagram>
</mxfile>
